<svg xmlns="http://www.w3.org/2000/svg" xmlns:xlink="http://www.w3.org/1999/xlink" width="500" zoomAndPan="magnify" viewBox="0 0 375 374.999991" height="500" preserveAspectRatio="xMidYMid meet" version="1.0"><defs><clipPath id="82f43aff58"><path d="M 117.296875 69.742188 L 188 69.742188 L 188 267 L 117.296875 267 Z M 117.296875 69.742188 " clip-rule="nonzero"/></clipPath><clipPath id="ad54779328"><path d="M 197 108 L 268 108 L 268 305.242188 L 197 305.242188 Z M 197 108 " clip-rule="nonzero"/></clipPath><clipPath id="578c68f046"><path d="M 291 77 L 304.046875 77 L 304.046875 90 L 291 90 Z M 291 77 " clip-rule="nonzero"/></clipPath></defs><g clip-path="url(#82f43aff58)"><path fill="#ffffff" d="M 117.359375 180.585938 L 117.359375 155.976562 C 122.34375 155.707031 126.105469 154.953125 128.632812 153.71875 C 131.164062 152.488281 133.351562 150.425781 135.195312 147.519531 C 137.042969 144.613281 138.304688 140.976562 138.992188 136.597656 C 139.535156 133.316406 139.8125 127.609375 139.8125 119.476562 C 139.8125 106.214844 140.425781 96.96875 141.65625 91.742188 C 142.886719 86.515625 145.105469 82.308594 148.320312 79.132812 C 151.53125 75.953125 156.214844 73.441406 162.367188 71.597656 C 166.535156 70.367188 173.097656 69.75 182.050781 69.75 L 187.484375 69.75 L 187.484375 94.257812 C 179.898438 94.257812 175.027344 94.683594 172.875 95.535156 C 170.722656 96.394531 169.132812 97.6875 168.109375 99.429688 C 167.082031 101.175781 166.570312 104.164062 166.570312 108.402344 C 166.570312 112.710938 166.261719 120.878906 165.648438 132.90625 C 165.304688 139.675781 164.417969 145.160156 162.980469 149.363281 C 161.546875 153.566406 159.714844 157.035156 157.496094 159.769531 C 155.273438 162.503906 151.871094 165.339844 147.292969 168.28125 C 151.328125 170.605469 154.625 173.320312 157.1875 176.429688 C 159.753906 179.542969 161.714844 183.316406 163.082031 187.761719 C 164.449219 192.203125 165.339844 198.152344 165.75 205.601562 C 166.226562 216.945312 166.464844 224.191406 166.464844 227.335938 C 166.464844 231.847656 167.015625 234.988281 168.109375 236.769531 C 169.199219 238.546875 170.859375 239.898438 173.082031 240.820312 C 175.300781 241.742188 180.105469 242.203125 187.484375 242.203125 L 187.484375 266.808594 L 182.050781 266.808594 C 172.824219 266.808594 165.75 266.074219 160.828125 264.605469 C 155.90625 263.136719 151.753906 260.691406 148.371094 257.273438 C 144.988281 253.855469 142.714844 249.632812 141.554688 244.613281 C 140.390625 239.585938 139.8125 231.675781 139.8125 220.878906 C 139.8125 208.300781 139.261719 200.132812 138.167969 196.371094 C 136.664062 190.90625 134.394531 186.992188 131.351562 184.632812 C 128.308594 182.273438 123.644531 180.925781 117.359375 180.585938 " fill-opacity="1" fill-rule="nonzero"/></g><path fill="#00bf63" d="M 272.902344 120.796875 L 256.855469 120.796875 L 256.855469 104.75 L 272.902344 104.75 L 272.902344 120.796875 " fill-opacity="1" fill-rule="nonzero"/><path fill="#00bf63" d="M 269.113281 152.890625 L 256.855469 152.890625 L 256.855469 140.632812 L 269.113281 140.632812 L 269.113281 152.890625 " fill-opacity="1" fill-rule="nonzero"/><g clip-path="url(#ad54779328)"><path fill="#00bf63" d="M 222.429688 133.058594 L 222.429688 120.796875 L 234.691406 120.796875 L 234.691406 133.058594 Z M 253.617188 190.382812 C 250.542969 188.023438 248.25 184.109375 246.746094 178.644531 C 245.921875 175.558594 245.429688 169.644531 245.269531 160.917969 L 234.691406 160.917969 L 234.691406 144.867188 L 245.035156 144.867188 C 244.777344 138.679688 244.238281 133.859375 243.414062 130.402344 C 242.21875 125.378906 239.945312 121.140625 236.597656 117.691406 C 233.25 114.238281 229.113281 111.792969 224.191406 110.359375 C 219.269531 108.921875 212.199219 108.207031 202.96875 108.207031 L 197.535156 108.207031 L 197.535156 132.710938 C 205.257812 132.710938 210.230469 133.171875 212.453125 134.09375 C 214.671875 135.015625 216.210938 136.332031 217.066406 138.039062 C 217.917969 139.75 218.382812 143.167969 218.449219 148.292969 C 218.792969 164.5625 219.335938 175.085938 220.089844 179.875 C 221.25 186.84375 223.4375 192.585938 226.652344 197.097656 C 228.976562 200.242188 232.664062 203.453125 237.726562 206.734375 C 233.828125 208.988281 230.632812 211.605469 228.140625 214.578125 C 225.640625 217.550781 223.644531 221.175781 222.140625 225.445312 C 220.636719 229.71875 219.714844 235.410156 219.371094 242.515625 C 218.824219 254.273438 218.535156 262.234375 218.503906 266.40625 C 218.464844 270.574219 217.917969 273.53125 216.859375 275.273438 C 215.800781 277.019531 214.144531 278.351562 211.886719 279.273438 C 209.632812 280.199219 204.847656 280.660156 197.535156 280.660156 L 197.535156 305.265625 L 202.96875 305.265625 C 211.921875 305.265625 218.484375 304.648438 222.652344 303.417969 C 228.875 301.574219 233.585938 299.0625 236.804688 295.882812 C 240.015625 292.707031 242.21875 288.484375 243.414062 283.222656 C 244.609375 277.957031 245.210938 268.695312 245.210938 255.433594 C 245.210938 247.371094 245.484375 241.699219 246.03125 238.414062 C 246.78125 234.042969 248.0625 230.402344 249.875 227.496094 C 251.683594 224.59375 253.855469 222.523438 256.386719 221.296875 C 258.914062 220.0625 262.675781 219.3125 267.664062 219.039062 L 267.664062 194.429688 C 261.375 194.089844 256.691406 192.738281 253.617188 190.382812 " fill-opacity="1" fill-rule="nonzero"/></g><g clip-path="url(#578c68f046)"><path fill="#00bf63" d="M 304.191406 89.632812 L 291.929688 89.632812 L 291.929688 77.371094 L 304.191406 77.371094 L 304.191406 89.632812 " fill-opacity="1" fill-rule="nonzero"/></g><path fill="#00bf63" d="M 242.714844 104.75 L 219.828125 104.75 L 219.828125 81.863281 L 242.714844 81.863281 L 242.714844 104.75 " fill-opacity="1" fill-rule="nonzero"/><path stroke-linecap="butt" transform="matrix(2.851831, 0, 0, 2.851831, 13.394077, 77.246097)" fill="none" stroke-linejoin="miter" d="M 24.889598 51.000678 L 16.142476 37.988204 L 11.74015 42.8535 L 11.74015 51.000678 L 3.316285 51.000678 L 3.316285 17.87092 L 11.74015 17.87092 L 11.74015 32.210666 L 24.427997 17.87092 L 34.168176 17.87092 L 21.862485 31.598395 L 34.977689 51.000678 Z M 24.889598 51.000678 " stroke="#00bf63" stroke-width="1.774901" stroke-opacity="1" stroke-miterlimit="4"/><path stroke-linecap="butt" transform="matrix(2.851831, 0, 0, 2.851831, 275.44736, 113.478919)" fill="none" stroke-linejoin="miter" d="M 14.814326 50.565648 C 12.194025 50.565648 9.660017 50.212256 7.210932 49.502734 C 4.768696 48.794581 2.807237 47.870011 1.329294 46.730392 L 3.929049 40.963812 C 5.346724 42.00344 7.032867 42.838978 8.990217 43.471795 C 10.946197 44.103242 12.903547 44.418281 14.859527 44.418281 C 17.040144 44.418281 18.649582 44.095024 19.69058 43.448509 C 20.730208 42.800625 21.249337 41.937693 21.249337 40.859712 C 21.249337 40.073484 20.942516 39.422861 20.326136 38.906471 C 19.709756 38.383233 18.919419 37.962724 17.956496 37.647685 C 17.001791 37.331277 15.703284 36.984734 14.062342 36.608057 C 11.536552 36.006744 9.466884 35.405431 7.857447 34.805487 C 6.248009 34.204174 4.864578 33.241251 3.709892 31.916718 C 2.562055 30.590815 1.988136 28.826598 1.988136 26.624065 C 1.988136 24.698219 2.507265 22.953178 3.546893 21.388941 C 4.587891 19.826075 6.154867 18.589205 8.25056 17.679702 C 10.353102 16.763349 12.918614 16.304488 15.945726 16.304488 C 18.064705 16.304488 20.133004 16.559259 22.150622 17.06743 C 24.16961 17.568753 25.937937 18.291973 27.455602 19.239829 L 25.085962 25.05298 C 22.027346 23.318897 18.96599 22.451855 15.900525 22.451855 C 13.758261 22.451855 12.172109 22.799768 11.13933 23.492853 C 10.114768 24.185939 9.602488 25.102291 9.602488 26.241909 C 9.602488 27.37468 10.195583 28.218436 11.381772 28.773178 C 12.567962 29.32792 14.374641 29.870335 16.80181 30.401792 C 19.3276 31.003105 21.395898 31.604418 23.006706 32.204362 C 24.616143 32.805675 25.995466 33.753531 27.143303 35.04793 C 28.297989 36.342329 28.876016 38.090109 28.876016 40.294012 C 28.876016 42.188354 28.34456 43.918328 27.281646 45.482564 C 26.226951 47.045431 24.639429 48.28641 22.52045 49.202762 C 20.40969 50.112266 17.841438 50.565648 14.814326 50.565648 Z M 14.814326 50.565648 " stroke="#ffffff" stroke-width="1.774901" stroke-opacity="1" stroke-miterlimit="4"/></svg>